<svg width="39" height="40" viewBox="0 0 39 40" fill="none" xmlns="http://www.w3.org/2000/svg">
<path d="M24.6754 3.16406C18.9403 3.16406 12.8459 5.13281 12.8459 8.77344V13.2656C12.8459 13.8828 13.3251 14.3906 13.9241 14.3906C14.5155 14.3906 15.0022 13.8906 15.0022 13.2656V12.0938C17.2857 13.5938 21.0517 14.3828 24.6829 14.3828C28.314 14.3828 32.08 13.5938 34.3635 12.0938V13.2656C34.3635 14.3594 31.7206 16.1172 26.7418 16.5469C26.1503 16.5938 25.7086 17.1406 25.761 17.7578C25.8059 18.3438 26.2776 18.7891 26.8316 18.7891C26.8616 18.7891 26.8915 18.7891 26.9215 18.7812C29.7216 18.5391 32.5142 17.7812 34.356 16.5547V17.7578C34.356 18.7188 32.4094 20.0938 28.7932 20.7578C28.2092 20.8672 27.8199 21.4453 27.9247 22.0547C28.0146 22.6016 28.4713 22.9844 28.9804 22.9844C29.0403 22.9844 29.1077 22.9766 29.1676 22.9688C31.3538 22.5703 33.1057 21.9062 34.356 21.0781V22.25C34.356 23.2109 32.4094 24.5859 28.7932 25.25C28.2092 25.3594 27.8199 25.9375 27.9247 26.5469C28.0146 27.0938 28.4713 27.4766 28.9804 27.4766C29.0403 27.4766 29.1077 27.4688 29.1676 27.4609C31.3538 27.0625 33.1057 26.3984 34.356 25.5703V26.7422C34.356 27.7031 32.4094 29.0781 28.7932 29.7422C28.2092 29.8516 27.8199 30.4297 27.9247 31.0391C28.0146 31.5859 28.4713 31.9688 28.9804 31.9688C29.0403 31.9688 29.1077 31.9609 29.1676 31.9531C31.3538 31.5547 33.1057 30.8906 34.356 30.0625V31.2344C34.356 32.3281 31.7131 34.0859 26.7343 34.5156C26.1428 34.5625 25.7011 35.1094 25.7535 35.7266C25.7984 36.3125 26.2701 36.7578 26.8241 36.7578C26.8541 36.7578 26.884 36.7578 26.914 36.75C31.6907 36.3359 36.5048 34.4688 36.5048 31.2344V8.78125C36.5048 5.13281 30.4104 3.16406 24.6754 3.16406ZM24.6754 12.2109C18.7008 12.2109 14.8899 10.1641 14.8899 8.76562C14.8899 7.36719 18.7008 5.3125 24.6754 5.3125C30.65 5.3125 34.4609 7.35938 34.4609 8.75781C34.4609 10.1562 30.65 12.2109 24.6754 12.2109Z" fill="#FBC100"/>
<path d="M13.9242 16.6328C8.18913 16.6328 2.09473 18.6016 2.09473 22.2422V31.2188C2.09473 34.8672 8.18913 36.8281 13.9242 36.8281C19.6592 36.8281 25.7536 34.8594 25.7536 31.2188V22.2422C25.7536 18.6016 19.6592 16.6328 13.9242 16.6328ZM23.9043 31.1172C23.9043 32.5312 20.0111 34.5938 13.9167 34.5938C7.82227 34.5938 3.93652 32.5312 3.93652 31.1172V29.9141C6.28744 31.4609 10.1807 32.2813 13.9242 32.2813C17.6676 32.2813 21.5534 31.4688 23.9118 29.9141V31.1172H23.9043ZM23.9342 26.6172C23.9342 28.0391 20.0335 30.1016 13.9242 30.1016C7.81478 30.1016 3.90658 28.0391 3.90658 26.6172V25.4063C6.26497 26.9609 10.1657 27.7734 13.9167 27.7734C17.6676 27.7734 21.5684 26.9531 23.9268 25.4063V26.6172H23.9342ZM13.9242 25.6094C7.92708 25.6094 4.10872 23.5859 4.10872 22.1953C4.10872 20.8047 7.93457 18.7812 13.9242 18.7812C19.9137 18.7812 23.7396 20.8047 23.7396 22.1953C23.7396 23.5859 19.9137 25.6094 13.9242 25.6094Z" fill="#FBC100"/>
</svg>
