<svg width="39" height="40" viewBox="0 0 39 40" fill="none" xmlns="http://www.w3.org/2000/svg">
<path d="M29.2084 24.5001C26.4457 24.3126 24.1547 26.7032 24.3344 29.586C24.4841 31.9688 26.3259 33.8907 28.6094 34.047C31.3721 34.2266 33.6557 31.8438 33.4835 28.961C33.3412 26.5782 31.4919 24.6485 29.2084 24.5001ZM29.0736 31.8985C27.5538 32.0001 26.2885 30.6876 26.3858 29.0938C26.4682 27.7813 27.4864 26.7188 28.7442 26.6329C30.2641 26.5313 31.5294 27.8438 31.432 29.4376C31.3497 30.7501 30.3314 31.8126 29.0736 31.8985Z" fill="#FBC100"/>
<path d="M13.5531 24.5001C10.7904 24.3126 8.50686 26.7032 8.67907 29.586C8.82132 31.9688 10.6706 33.8907 12.9541 34.047C15.7168 34.2345 18.0004 31.8438 17.8282 28.961C17.6784 26.5782 15.8366 24.6485 13.5531 24.5001ZM13.4183 31.8985C11.8985 32.0001 10.6407 30.6876 10.7305 29.1016C10.8129 27.7891 11.8311 26.7266 13.0814 26.6407C14.6013 26.5391 15.8666 27.8516 15.7692 29.4454C15.6944 30.7501 14.6686 31.8126 13.4183 31.8985Z" fill="#FBC100"/>
<path d="M17.3042 30.386H25.203V28.2375H17.3042V30.386Z" fill="#FBC100"/>
<path d="M37.4966 21.5859V28.0391C37.4966 29.3359 36.4934 30.3828 35.2505 30.3828H32.8996V28.2344H34.7339C35.1232 28.2344 35.4302 27.9063 35.4302 27.5078V21.8438C34.8911 21.1094 34.3521 20.3672 33.813 19.6328H24.941C24.3719 19.6328 23.9152 19.1484 23.9152 18.5625V8.36719H6.62032C6.05131 8.36719 5.5946 7.88281 5.5946 7.29688C5.5946 6.70313 6.0588 6.22656 6.62032 6.22656H24.941C25.51 6.22656 25.9667 6.71094 25.9667 7.29688V16.8047C25.9667 17.1875 26.2587 17.4922 26.6255 17.4922H35.0858L35.4003 18.1406C35.4227 18.1875 35.4527 18.2344 35.4826 18.2734C36.0891 19.1719 36.6955 20.0625 37.3094 20.9609C37.4292 21.1484 37.4966 21.3594 37.4966 21.5859Z" fill="#FBC100"/>
<path d="M5.71444 28.2344H8.96379C9.5328 28.2344 9.9895 28.7188 9.9895 29.3047C9.9895 29.8984 9.52531 30.375 8.96379 30.375H5.71444C5.14543 30.375 4.68872 29.8906 4.68872 29.3047C4.68872 28.7188 5.14543 28.2344 5.71444 28.2344Z" fill="#FBC100"/>
<path d="M4.3521 21.2422H9.85503C10.424 21.2422 10.8807 21.7266 10.8807 22.3125C10.8807 22.9062 10.4166 23.3828 9.85503 23.3828H4.3521C3.78309 23.3828 3.32638 22.8984 3.32638 22.3125C3.3189 21.7188 3.78309 21.2422 4.3521 21.2422Z" fill="#FBC100"/>
<path d="M2.42766 16.5078H12.7971C13.3661 16.5078 13.8228 16.9922 13.8228 17.5781C13.8228 18.1719 13.3587 18.6484 12.7971 18.6484H2.42766C1.85865 18.6484 1.40194 18.1641 1.40194 17.5781C1.39446 16.9844 1.85865 16.5078 2.42766 16.5078Z" fill="#FBC100"/>
<path d="M4.39641 11.8359H14.3167C14.8857 11.8359 15.3424 12.3203 15.3424 12.9062C15.3424 13.5 14.8782 13.9766 14.3167 13.9766H4.39641C3.8274 13.9766 3.37069 13.4922 3.37069 12.9062C3.36321 12.3125 3.8274 11.8359 4.39641 11.8359Z" fill="#FBC100"/>
<path d="M35.0858 17.4844H32.7798L30.2642 12.2812H25.9667V10.1328H30.7059C31.2076 10.1328 31.6643 10.4297 31.8964 10.8984L32.5702 12.2812" fill="#FBC100"/>
</svg>
