<svg width="25" height="24" viewBox="0 0 25 24" fill="none" xmlns="http://www.w3.org/2000/svg">
<path d="M12.375 21.23H12.155C11.9515 21.1978 11.7629 21.1035 11.615 20.96L3.925 13.26C2.94558 12.2099 2.41214 10.8206 2.43713 9.38491C2.46211 7.9492 3.04356 6.57928 4.05892 5.56392C5.07427 4.54857 6.44419 3.96712 7.8799 3.94213C9.31561 3.91715 10.7049 4.45059 11.755 5.43001L12.375 6.00001L12.975 5.40001C14.0163 4.36737 15.4235 3.78796 16.89 3.78796C18.3565 3.78796 19.7637 4.36737 20.805 5.40001C21.8425 6.43876 22.4253 7.84687 22.4253 9.31501C22.4253 10.7831 21.8425 12.1912 20.805 13.23L13.105 20.93C13.01 21.0269 12.8963 21.1035 12.7708 21.1551C12.6453 21.2066 12.5107 21.2321 12.375 21.23ZM7.815 5.79001C7.12388 5.79885 6.45048 6.00982 5.87786 6.39688C5.30523 6.78395 4.85844 7.33017 4.59261 7.96818C4.32677 8.60618 4.25352 9.30805 4.38189 9.98719C4.51026 10.6663 4.83464 11.293 5.315 11.79L12.315 18.79L19.315 11.79C19.9769 11.1264 20.3487 10.2273 20.3487 9.29001C20.3487 8.35269 19.9769 7.45363 19.315 6.79001C18.9877 6.45984 18.5983 6.19777 18.1692 6.01892C17.7401 5.84007 17.2799 5.74799 16.815 5.74799C16.3501 5.74799 15.8899 5.84007 15.4608 6.01892C15.0317 6.19777 14.6423 6.45984 14.315 6.79001L13.005 8.09001C12.8176 8.27626 12.5642 8.3808 12.3 8.3808C12.0358 8.3808 11.7824 8.27626 11.595 8.09001L10.315 6.83001C9.98757 6.5002 9.59808 6.2385 9.169 6.06001C8.73991 5.88151 8.27973 5.78974 7.815 5.79001Z" fill="#333333"/>
</svg>
