<svg width="25" height="24" viewBox="0 0 25 24" fill="none" xmlns="http://www.w3.org/2000/svg">
<path d="M22.8966 15.4853C20.0568 13.6955 16.7875 12.7409 13.4466 12.7409H13.3273C9.9625 12.7409 6.69318 13.6955 3.87727 15.4853C3.23295 15.8671 2.875 16.5353 2.875 17.275V19.3989C2.875 20.5682 3.80568 21.5228 4.975 21.5228H21.775C22.9205 21.5228 23.875 20.5682 23.875 19.3989V17.275C23.875 16.5353 23.517 15.8671 22.8966 15.4853ZM21.9659 19.3989C21.9659 19.5182 21.8705 19.6137 21.775 19.6137H4.975C4.87955 19.6137 4.78409 19.5182 4.78409 19.3989V17.275C4.78409 17.2034 4.83182 17.1318 4.87955 17.0841C7.40909 15.4853 10.3205 14.65 13.3034 14.65H13.4227C16.4057 14.65 19.3409 15.4853 21.8466 17.108C21.8943 17.1557 21.942 17.2034 21.942 17.2989V19.3989H21.9659Z" fill="black"/>
<path d="M9.07959 5.29545V7.68182C9.07959 10.0443 11.0125 11.9773 13.375 11.9773C15.7375 11.9773 17.6705 10.0443 17.6705 7.68182V5.29545C17.6705 2.93295 15.7375 1 13.375 1C11.0125 1 9.07959 2.93295 9.07959 5.29545ZM15.7614 5.29545V7.68182C15.7614 8.99432 14.6875 10.0682 13.375 10.0682C12.0625 10.0682 10.9887 8.99432 10.9887 7.68182V5.29545C10.9887 3.98295 12.0625 2.90909 13.375 2.90909C14.6875 2.90909 15.7614 3.98295 15.7614 5.29545Z" fill="black"/>
</svg>
