<svg width="24" height="24" viewBox="0 0 24 24" fill="none" xmlns="http://www.w3.org/2000/svg">
<path fill-rule="evenodd" clip-rule="evenodd" d="M17.0911 2.8931L13.0752 6.90891L17.0911 10.9247L21.1069 6.90891L17.0911 2.8931ZM11.7366 5.57031C10.9973 6.30959 10.9973 7.50823 11.7366 8.24751L15.7524 12.2634C16.4917 13.0026 17.6904 13.0026 18.4297 12.2634L22.4455 8.24751C23.1847 7.50823 23.1847 6.30959 22.4455 5.57031L18.4297 1.5545C17.6904 0.815208 16.4917 0.815208 15.7524 1.5545L11.7366 5.57031Z" fill="black"/>
<path fill-rule="evenodd" clip-rule="evenodd" d="M7.62575 4.06934H3.83961C3.31685 4.06934 2.89307 4.49312 2.89307 5.01588V8.80202C2.89307 9.32479 3.31685 9.74856 3.83961 9.74856H7.62575C8.1485 9.74856 8.57229 9.32479 8.57229 8.80202V5.01588C8.57229 4.49312 8.1485 4.06934 7.62575 4.06934ZM3.83961 2.17627C2.27134 2.17627 1 3.44761 1 5.01588V8.80202C1 10.3703 2.27134 11.6416 3.83961 11.6416H7.62575C9.19402 11.6416 10.4654 10.3703 10.4654 8.80202V5.01588C10.4654 3.44761 9.19402 2.17627 7.62575 2.17627H3.83961Z" fill="black"/>
<path fill-rule="evenodd" clip-rule="evenodd" d="M7.62575 15.4278H3.83961C3.31685 15.4278 2.89307 15.8515 2.89307 16.3743V20.1604C2.89307 20.6832 3.31685 21.107 3.83961 21.107H7.62575C8.1485 21.107 8.57229 20.6832 8.57229 20.1604V16.3743C8.57229 15.8515 8.1485 15.4278 7.62575 15.4278ZM3.83961 13.5347C2.27134 13.5347 1 14.806 1 16.3743V20.1604C1 21.7288 2.27134 23.0001 3.83961 23.0001H7.62575C9.19402 23.0001 10.4654 21.7288 10.4654 20.1604V16.3743C10.4654 14.806 9.19402 13.5347 7.62575 13.5347H3.83961Z" fill="black"/>
<path fill-rule="evenodd" clip-rule="evenodd" d="M18.9841 15.4278H15.198C14.6752 15.4278 14.2515 15.8515 14.2515 16.3743V20.1604C14.2515 20.6832 14.6752 21.107 15.198 21.107H18.9841C19.5069 21.107 19.9307 20.6832 19.9307 20.1604V16.3743C19.9307 15.8515 19.5069 15.4278 18.9841 15.4278ZM15.198 13.5347C13.6297 13.5347 12.3584 14.806 12.3584 16.3743V20.1604C12.3584 21.7288 13.6297 23.0001 15.198 23.0001H18.9841C20.5525 23.0001 21.8238 21.7288 21.8238 20.1604V16.3743C21.8238 14.806 20.5525 13.5347 18.9841 13.5347H15.198Z" fill="black"/>
</svg>
