<svg width="40" height="40" viewBox="0 0 40 40" fill="none" xmlns="http://www.w3.org/2000/svg">
<path d="M34.0813 23.8036C36.3746 21.9124 37.6692 19.365 37.6692 16.6632C37.6692 11.1439 32.3428 6.66675 25.8329 6.66675C21.6162 6.66675 17.9544 8.51938 15.8461 11.3369C15.3652 11.2983 14.8474 11.2597 14.3665 11.2597C7.85659 11.2597 2.53027 15.7369 2.53027 21.2562C2.53027 23.958 3.82486 26.5439 6.11814 28.3966C5.9332 29.0527 5.63729 29.6703 5.3044 30.2106C4.78656 31.0211 4.82355 32.0632 5.41536 32.8352C5.74826 33.2983 6.26609 33.6457 6.82092 33.7229C6.93188 33.7229 7.04285 33.7615 7.15381 33.7615C7.37574 33.7615 7.59767 33.7229 7.8196 33.6457C9.26214 33.1825 10.7787 32.2948 12.3322 31.0597C13.035 31.1755 13.7007 31.2141 14.3665 31.2141C18.5832 31.2141 22.282 29.3615 24.3534 26.5439C24.8342 26.5825 25.3151 26.6211 25.8329 26.6211C26.4987 26.6211 27.2015 26.5825 27.8673 26.4667C29.4208 27.7404 30.9373 28.5896 32.3798 29.0913C32.6018 29.1685 32.8237 29.2071 33.0456 29.2071C33.1566 29.2071 33.2676 29.2071 33.3785 29.1685C33.9333 29.0913 34.4512 28.7439 34.7841 28.2808C35.3389 27.5089 35.3759 26.4667 34.895 25.6562C34.5621 25.0773 34.2662 24.4597 34.0813 23.8036ZM14.3665 29.0913C13.6638 29.0913 12.924 29.0141 12.2212 28.8983C11.9253 28.8597 11.6294 28.9369 11.4075 29.1299C9.92793 30.4036 8.48539 31.2527 7.22779 31.6387L7.04285 31.5615C7.00586 31.4843 7.00586 31.4071 7.04285 31.3685C7.63466 30.4036 8.07852 29.3615 8.30045 28.2036C8.37443 27.779 8.22647 27.3545 7.89358 27.0843C5.74826 25.579 4.56463 23.4562 4.56463 21.2176C4.56463 16.8948 8.96624 13.3439 14.3665 13.3439C19.7668 13.3439 24.1684 16.8562 24.1684 21.2176C24.1684 25.579 19.7668 29.0913 14.3665 29.0913ZM32.3428 22.4913C32.01 22.7229 31.825 23.186 31.936 23.6106C32.1949 24.7685 32.6018 25.8106 33.1936 26.7755C33.2306 26.8527 33.2306 26.9299 33.1936 26.9685L33.0086 27.0457C31.714 26.6211 30.3085 25.772 28.829 24.5369C28.644 24.3825 28.4221 24.3053 28.2002 24.3053C28.1262 24.3053 28.0892 24.3053 28.0152 24.3053C27.2754 24.4211 26.5727 24.4983 25.8699 24.4983C25.7589 24.4983 25.685 24.4983 25.574 24.4983C25.9809 23.4562 26.2398 22.3755 26.2398 21.2176C26.2398 16.8176 22.8738 13.1124 18.1763 11.7615C19.9888 9.94745 22.7259 8.75096 25.8699 8.75096C31.2702 8.75096 35.6718 12.2632 35.6718 16.6246C35.6348 18.8632 34.4512 21.0246 32.3428 22.4913Z" fill="#FBC100"/>
<path d="M14.4036 15.7729C12.1474 15.7729 11.1117 17.4712 10.8897 18.9379C10.8528 19.1308 10.9267 19.3238 11.0377 19.4782C11.1487 19.6326 11.3336 19.7098 11.5185 19.7098H12.3323C12.6282 19.7098 12.9241 19.4782 12.9611 19.1308C13.109 18.3203 13.5899 17.9344 14.4036 17.9344C15.1804 17.9344 15.5133 18.3589 15.6612 18.6291C15.8462 19.0151 15.8092 19.4396 15.5873 19.7484C15.3653 20.0958 15.1434 20.2501 14.8845 20.4431C14.2187 20.9449 13.6269 21.4852 13.5159 22.9519C13.5159 23.1449 13.5529 23.3379 13.7009 23.4537C13.8118 23.608 13.9968 23.6852 14.1817 23.6852H14.9215C15.2544 23.6852 15.5503 23.4151 15.5503 23.0677C15.5873 22.5273 15.6982 22.4501 16.0311 22.2186C16.364 21.987 16.8079 21.6782 17.2147 21.0221C17.9175 20.0572 17.9915 18.7449 17.4737 17.6642C16.9188 16.4677 15.7722 15.7729 14.4036 15.7729Z" fill="#FBC100"/>
<path d="M14.5107 26.9299C15.1848 26.9299 15.7313 26.3597 15.7313 25.6563C15.7313 24.9528 15.1848 24.3826 14.5107 24.3826C13.8365 24.3826 13.29 24.9528 13.29 25.6563C13.29 26.3597 13.8365 26.9299 14.5107 26.9299Z" fill="#FBC100"/>
</svg>
