<svg width="20" height="20" viewBox="0 0 20 20" fill="none" xmlns="http://www.w3.org/2000/svg">
<path d="M10.1656 2.27696C11.397 2.27696 12.4002 3.30705 12.4002 4.57371V9.55148C12.4002 10.8171 11.398 11.8472 10.1656 11.8472C8.9332 11.8472 7.93199 10.8171 7.93199 9.55148V4.57371C7.93199 3.30805 8.93422 2.27696 10.1656 2.27696ZM10.1656 0.816666C8.10819 0.816666 6.44189 2.49955 6.44189 4.57371V9.55148C6.44189 11.6276 8.10921 13.3075 10.1656 13.3075C12.222 13.3075 13.8893 11.6266 13.8893 9.55148V4.57371C13.8893 2.49955 12.222 0.816666 10.1656 0.816666Z" fill="#BABAC0"/>
<path d="M16.2067 9.88182C16.2067 9.47857 15.8736 9.15218 15.4621 9.15218C15.0517 9.15218 14.7186 9.47957 14.7186 9.88182C14.7186 12.465 12.6857 14.5651 10.1872 14.5651C7.68879 14.5651 5.65583 12.465 5.65583 9.88182C5.65583 9.47857 5.32175 9.15218 4.91129 9.15218C4.50082 9.15218 4.16675 9.47957 4.16675 9.88182C4.16675 13.011 6.4737 15.5982 9.44269 15.9725V18.0537C9.44167 18.4569 9.77473 18.7833 10.1862 18.7833C10.5977 18.7833 10.9307 18.4569 10.9307 18.0537V15.9725C13.8997 15.5982 16.2067 13.011 16.2067 9.88182Z" fill="#BABAC0"/>
</svg>
