<svg width="40" height="40" viewBox="0 0 40 40" fill="none" xmlns="http://www.w3.org/2000/svg">
<path d="M35.2109 3.1875C34.7767 2.98437 34.2676 3.0625 33.9157 3.39063L30.5316 6.51562L27.14 3.35938C26.6833 2.92969 25.987 2.92969 25.5303 3.35938L22.1462 6.51562L18.7546 3.35938C18.2979 2.92969 17.6016 2.92969 17.1449 3.35938L13.7607 6.52344L10.3766 3.39844C10.0173 3.07031 9.51562 2.99219 9.08138 3.19531C8.64714 3.39844 8.37012 3.85156 8.37012 4.34375V26.7969H4.25228C3.58594 26.7969 3.04688 27.3594 3.04688 28.0547V31.125C3.04688 34.3672 5.52506 37.0234 8.6097 37.1328C8.67708 37.1328 8.74447 37.1406 8.81185 37.1406H30.1572C33.3317 37.1406 35.9222 34.4453 35.9222 31.125V4.33594C35.9222 3.84375 35.6452 3.39062 35.2109 3.1875ZM8.59473 34.9688C6.67057 34.9688 5.09831 33.1719 5.09831 30.9688V28.8984H24.8789V30.9688C24.8789 32.4609 25.2907 33.8359 26.002 34.9688H8.59473ZM33.8184 31.1875C33.8184 33.1641 32.276 34.7734 30.3818 34.7734C28.4876 34.7734 26.9453 33.1641 26.9453 31.1875V28.0312C26.9453 27.3125 26.3913 26.7344 25.7025 26.7344H10.4665V6.53906L12.7051 8.60938C13.1768 9.04687 13.888 9.04688 14.3522 8.60156L17.8337 5.35938L21.3151 8.60156C21.7868 9.03906 22.498 9.03906 22.9697 8.60156L26.4512 5.35156L29.9326 8.60156C30.4043 9.03906 31.1156 9.03906 31.5798 8.60938L33.8184 6.53906V31.1875Z" fill="#FBC100"/>
<path d="M8.80444 37.1328H8.60229V37.125C8.66968 37.1328 8.73706 37.1328 8.80444 37.1328Z" fill="#FBC100"/>
<path d="M15.4378 22.5234H28.8919C29.4609 22.5234 29.9176 22.0391 29.9176 21.4531C29.9176 20.8594 29.4534 20.3828 28.8919 20.3828H15.4378C14.8688 20.3828 14.4121 20.8672 14.4121 21.4531C14.4046 22.0469 14.8688 22.5234 15.4378 22.5234Z" fill="#FBC100"/>
<path d="M15.4378 16.5313H24.5869C25.1559 16.5313 25.6126 16.0469 25.6126 15.4609C25.6126 14.8672 25.1484 14.3906 24.5869 14.3906H15.4378C14.8688 14.3906 14.4121 14.875 14.4121 15.4609C14.4046 16.0469 14.8688 16.5313 15.4378 16.5313Z" fill="#FBC100"/>
</svg>
