<svg width="143" height="47" viewBox="0 0 143 47" fill="none" xmlns="http://www.w3.org/2000/svg">
<g clip-path="url(#clip0_5611_119255)">
<path d="M71.7479 25.1626C69.3745 25.1626 67.4355 27.0142 67.4355 29.5588C67.4355 32.0932 69.3745 33.9551 71.7479 33.9551C74.1212 33.9551 76.0602 32.0932 76.0602 29.5588C76.0602 27.0142 74.1212 25.1626 71.7479 25.1626ZM71.7479 32.2276C70.4451 32.2276 69.3241 31.1311 69.3241 29.5588C69.3241 27.9762 70.4451 26.89 71.7479 26.89C73.0507 26.89 74.1717 27.9762 74.1717 29.5588C74.1717 31.1311 73.0406 32.2276 71.7479 32.2276ZM62.3354 25.1626C59.9621 25.1626 58.0231 27.0142 58.0231 29.5588C58.0231 32.0932 59.9621 33.9551 62.3354 33.9551C64.7087 33.9551 66.6478 32.0932 66.6478 29.5588C66.6478 27.0142 64.7087 25.1626 62.3354 25.1626ZM62.3354 32.2276C61.0326 32.2276 59.9116 31.1311 59.9116 29.5588C59.9116 27.9762 61.0326 26.89 62.3354 26.89C63.6382 26.89 64.7592 27.9762 64.7592 29.5588C64.7592 31.1311 63.6382 32.2276 62.3354 32.2276ZM51.1454 26.5176V28.3796H55.5083C55.377 29.4244 55.0336 30.2002 54.5186 30.7278C53.8823 31.3794 52.8926 32.0932 51.1556 32.0932C48.4691 32.0932 46.3684 29.8795 46.3684 27.1279C46.3684 24.3764 48.4691 22.1627 51.1556 22.1627C52.5998 22.1627 53.6601 22.742 54.4378 23.4972L55.7204 22.1834C54.6297 21.1179 53.1855 20.3008 51.1454 20.3008C47.4693 20.3008 44.3789 23.3627 44.3789 27.1382C44.3789 30.9036 47.4693 33.9758 51.1454 33.9758C53.1349 33.9758 54.6297 33.3138 55.8011 32.0621C57.003 30.8311 57.3766 29.0933 57.3766 27.6969C57.3766 27.2624 57.3464 26.859 57.2757 26.528H51.1454V26.5176ZM96.9051 27.9658C96.5516 26.9831 95.4609 25.1626 93.229 25.1626C91.0173 25.1626 89.1792 26.9417 89.1792 29.5588C89.1792 32.0207 90.997 33.9551 93.441 33.9551C95.4104 33.9551 96.5516 32.7241 97.0162 32.0104L95.5518 31.007C95.067 31.7414 94.4005 32.2276 93.441 32.2276C92.4816 32.2276 91.7949 31.7724 91.3606 30.8932L97.1071 28.4623L96.9051 27.9658ZM91.0475 29.4347C90.997 27.7383 92.3302 26.8694 93.2896 26.8694C94.037 26.8694 94.6732 27.2521 94.8852 27.8003L91.0475 29.4347ZM86.3817 33.6965H88.2703V20.7663H86.3817V33.6965ZM83.2914 26.1453H83.2206C82.7965 25.6281 81.9886 25.1626 80.9584 25.1626C78.8072 25.1626 76.838 27.0969 76.838 29.5795C76.838 32.0414 78.8072 33.9654 80.9584 33.9654C81.9784 33.9654 82.7965 33.4999 83.2206 32.962H83.2812V33.5931C83.2812 35.2792 82.4026 36.1791 80.9886 36.1791C79.8374 36.1791 79.1203 35.3308 78.8275 34.6171L77.1813 35.3205C77.656 36.4894 78.9082 37.9169 80.9886 37.9169C83.2005 37.9169 85.0688 36.5825 85.0688 33.3345V25.4314H83.2812V26.1453H83.2914ZM81.1199 32.2276C79.8172 32.2276 78.7264 31.1104 78.7264 29.5795C78.7264 28.0279 79.8172 26.9003 81.1199 26.9003C82.4026 26.9003 83.4125 28.0383 83.4125 29.5795C83.4226 31.1104 82.4127 32.2276 81.1199 32.2276ZM105.752 20.7663H101.238V33.6965H103.126V28.7934H105.762C107.853 28.7934 109.903 27.2417 109.903 24.7798C109.903 22.3179 107.832 20.7663 105.752 20.7663ZM105.792 26.9935H103.116V22.5558H105.792C107.206 22.5558 108.004 23.7557 108.004 24.7694C108.004 25.7832 107.206 26.9935 105.792 26.9935ZM117.447 25.1419C116.084 25.1419 114.67 25.7625 114.084 27.1175L115.76 27.8314C116.114 27.1175 116.78 26.8796 117.477 26.8796C118.447 26.8796 119.447 27.4796 119.457 28.5451V28.6796C119.113 28.483 118.386 28.183 117.487 28.183C115.68 28.183 113.852 29.1968 113.852 31.0897C113.852 32.8172 115.326 33.9344 116.982 33.9344C118.245 33.9344 118.952 33.3552 119.386 32.6724H119.447V33.6758H121.264V28.721C121.275 26.4245 119.598 25.1419 117.447 25.1419ZM117.215 32.2276C116.599 32.2276 115.74 31.907 115.74 31.1311C115.74 30.1381 116.811 29.7554 117.74 29.7554C118.568 29.7554 118.962 29.9416 119.457 30.1898C119.315 31.3794 118.305 32.2276 117.215 32.2276ZM127.9 25.4212L125.739 31.0277H125.678L123.435 25.4212H121.406L124.769 33.262L122.85 37.6169H124.82L130 25.4212H127.9ZM110.933 33.6965H112.822V20.7663H110.933V33.6965Z" fill="white"/>
<path d="M13.4763 10.464C13.1834 10.7847 13.0117 11.2812 13.0117 11.9122V34.7935C13.0117 35.4348 13.1834 35.9313 13.4763 36.2416L13.547 36.3141L26.06 23.508V23.3529V23.1976L13.547 10.3916L13.4763 10.464Z" fill="url(#paint0_linear_5611_119255)"/>
<path d="M30.2295 27.7804L26.0586 23.5083V23.3531V23.1979L30.2295 18.9258L30.3205 18.9775L35.259 21.8531C36.6729 22.6704 36.6729 24.0152 35.259 24.8426L30.3205 27.7183L30.2295 27.7804Z" fill="url(#paint1_linear_5611_119255)"/>
<path d="M30.3201 27.7187L26.0583 23.3535L13.4746 36.2424C13.9392 36.7491 14.7067 36.8112 15.5752 36.3044L30.3201 27.7187Z" fill="url(#paint2_linear_5611_119255)"/>
<path d="M30.3205 18.9879L15.5655 10.4023C14.697 9.89543 13.9294 9.95749 13.4648 10.4644L26.0586 23.3532L30.3205 18.9879Z" fill="url(#paint3_linear_5611_119255)"/>
<path opacity="0.2" d="M30.2311 27.625L15.5671 36.159C14.7491 36.6348 14.0118 36.6037 13.5473 36.1692L13.4766 36.2416L13.5473 36.3141C14.0219 36.7485 14.7491 36.7796 15.5671 36.3037L30.322 27.7181L30.2311 27.625Z" fill="#383838"/>
<path opacity="0.12" d="M13.4763 36.0976C13.1834 35.7769 13.0117 35.2803 13.0117 34.6494V34.8045C13.0117 35.4459 13.1834 35.9424 13.4763 36.2527L13.547 36.1804L13.4763 36.0976Z" fill="#383838"/>
<path opacity="0.12" d="M35.2583 24.6983L30.2188 27.6257L30.3096 27.7188L35.2482 24.8431C35.9551 24.4294 36.3086 23.8915 36.3086 23.3535C36.2581 23.8397 35.9046 24.3259 35.2583 24.6983Z" fill="#383838"/>
<path opacity="0.25" d="M15.5652 10.5469L35.2587 22.0081C35.895 22.3805 36.2585 22.8563 36.3192 23.3529C36.3192 22.815 35.9657 22.2667 35.2587 21.8633L15.5652 10.4021C14.1513 9.58489 13 10.2676 13 11.9227V12.0778C13 10.4124 14.1614 9.72971 15.5652 10.5469Z" fill="white"/>
<path d="M45.4582 17.4245H44.7109V15.3453H45.3068C45.832 14.8798 46.0844 14.0937 46.0743 12.9662V9.9043H50.1241V15.3453H50.8008V17.4245H50.0534V16.1108H45.4582V17.4245ZM46.8621 12.9765C46.8722 13.9592 46.6802 14.7454 46.2864 15.3557H49.3465V10.6698H46.8621V12.9765Z" fill="white" stroke="white" stroke-width="0.201985" stroke-miterlimit="10"/>
<path d="M56.8714 15.3046C56.2756 15.9356 55.5384 16.246 54.6496 16.246C53.7609 16.246 53.0237 15.9356 52.4278 15.3046C51.8319 14.6736 51.5391 13.9082 51.5391 13.0082C51.5391 12.1083 51.8319 11.3325 52.4278 10.7118C53.0237 10.0808 53.7609 9.77051 54.6496 9.77051C55.5282 9.77051 56.2655 10.0808 56.8714 10.7118C57.4673 11.3428 57.7703 12.1083 57.7703 13.0082C57.7703 13.9185 57.4673 14.684 56.8714 15.3046ZM53.0034 14.7874C53.4478 15.2529 54.0033 15.4805 54.6496 15.4805C55.296 15.4805 55.8514 15.2529 56.2958 14.7874C56.7401 14.3219 56.9724 13.7323 56.9724 13.0082C56.9724 12.2841 56.7502 11.6945 56.2958 11.229C55.8514 10.7636 55.296 10.536 54.6496 10.536C54.0033 10.536 53.4478 10.7636 53.0034 11.229C52.5591 11.6945 52.3268 12.2841 52.3268 13.0082C52.3268 13.7323 52.5591 14.3219 53.0034 14.7874Z" fill="white" stroke="white" stroke-width="0.201985" stroke-miterlimit="10"/>
<path d="M61.6899 16.2461C60.8013 16.2461 60.0539 15.9358 59.448 15.3152C58.842 14.6945 58.5391 13.929 58.5391 12.9981C58.5391 12.0671 58.842 11.3016 59.448 10.681C60.0539 10.0603 60.8013 9.75 61.6899 9.75C62.599 9.75 63.3462 10.0914 63.9119 10.7637L63.3665 11.3016C62.9523 10.7741 62.3969 10.5155 61.6799 10.5155C61.0235 10.5155 60.4579 10.743 60.0034 11.1982C59.5489 11.6533 59.3268 12.2533 59.3268 12.9877C59.3268 13.7222 59.5489 14.3221 60.0034 14.7773C60.4579 15.2324 61.0133 15.46 61.6799 15.46C62.407 15.46 63.0231 15.16 63.5381 14.56L64.0835 15.1186C63.8108 15.46 63.4574 15.7289 63.0432 15.9255C62.6292 16.153 62.1747 16.2461 61.6899 16.2461Z" fill="white" stroke="white" stroke-width="0.201985" stroke-miterlimit="10"/>
<path d="M67.2418 16.1108H66.4642V10.6698H64.7676V9.9043H68.9284V10.6698H67.2317V16.1108H67.2418Z" fill="white" stroke="white" stroke-width="0.201985" stroke-miterlimit="10"/>
<path d="M74.2806 9.9043L71.988 15.1384C71.6749 15.8729 71.2003 16.2453 70.5742 16.2453C70.3924 16.2453 70.1904 16.2039 69.9682 16.1108L70.1702 15.3764C70.3015 15.4488 70.4328 15.4901 70.5742 15.4901C70.7559 15.4901 70.8973 15.4591 70.9984 15.3867C71.0994 15.3143 71.1902 15.1798 71.2711 14.9936L71.4931 14.4971L69.4531 9.9043H70.3722L71.8669 13.4627H71.8971L73.3616 9.9043H74.2806Z" fill="white" stroke="white" stroke-width="0.201985" stroke-miterlimit="10"/>
<path d="M75.1582 16.1108V9.9043H79.5413V16.1108H78.7635V10.6698H75.9358V16.1108H75.1582Z" fill="white" stroke="white" stroke-width="0.201985" stroke-miterlimit="10"/>
<path d="M80.9277 16.1108V9.9043H81.7055V12.5627H84.7352V9.9043H85.5128V16.1108H84.7352V13.3075H81.7055V16.1108H80.9277Z" fill="white" stroke="white" stroke-width="0.201985" stroke-miterlimit="10"/>
<path d="M91.8656 15.3046C91.2698 15.9356 90.5324 16.246 89.6438 16.246C88.755 16.246 88.0178 15.9356 87.422 15.3046C86.826 14.6736 86.5332 13.9082 86.5332 13.0082C86.5332 12.1083 86.826 11.3325 87.422 10.7118C88.0178 10.0808 88.755 9.77051 89.6438 9.77051C90.5224 9.77051 91.2596 10.0808 91.8656 10.7118C92.4614 11.3428 92.7644 12.1083 92.7644 13.0082C92.7544 13.9185 92.4614 14.684 91.8656 15.3046ZM87.9975 14.7874C88.4419 15.2529 88.9974 15.4805 89.6438 15.4805C90.2901 15.4805 90.8455 15.2529 91.2899 14.7874C91.7343 14.3219 91.9666 13.7323 91.9666 13.0082C91.9666 12.2841 91.7444 11.6945 91.2899 11.229C90.8455 10.7636 90.2901 10.536 89.6438 10.536C88.9974 10.536 88.4419 10.7636 87.9975 11.229C87.5532 11.6945 87.3209 12.2841 87.3209 13.0082C87.3209 13.7323 87.5431 14.3219 87.9975 14.7874Z" fill="white" stroke="white" stroke-width="0.201985" stroke-miterlimit="10"/>
<path d="M95.9336 16.1108V9.9043H98.1252C98.5998 9.9043 99.0138 10.0698 99.3572 10.3801C99.7007 10.7008 99.8824 11.1042 99.8824 11.5904C99.8824 11.8904 99.8117 12.149 99.6603 12.3662C99.5087 12.5938 99.3168 12.7593 99.0644 12.8731V12.9041C99.3673 13.0075 99.6098 13.1834 99.8016 13.442C99.9935 13.7006 100.094 13.9902 100.094 14.3316C100.094 14.8385 99.9127 15.2626 99.5491 15.5936C99.1855 15.9246 98.7513 16.1004 98.2565 16.1004H95.9336V16.1108ZM96.7112 12.5627H98.1252C98.418 12.5627 98.6503 12.4593 98.8321 12.2628C99.0138 12.0662 99.0947 11.849 99.0947 11.6111C99.0947 11.3732 99.0138 11.1559 98.8321 10.9594C98.6605 10.7629 98.4383 10.6594 98.1554 10.6594H96.7112V12.5627ZM96.7112 15.3453H98.2766C98.5796 15.3453 98.822 15.2419 99.0038 15.0247C99.1855 14.8074 99.2865 14.5799 99.2865 14.3213C99.2865 14.0627 99.1956 13.8351 98.9937 13.6282C98.8018 13.4213 98.5493 13.3075 98.2362 13.3075H96.7011V15.3453H96.7112Z" fill="white" stroke="white" stroke-width="0.201985" stroke-miterlimit="10"/>
</g>
<rect x="1.08333" y="1.08333" width="140.833" height="44.4167" rx="5.41667" stroke="#D8D8D8" stroke-opacity="0.2" stroke-width="2.16667"/>
<defs>
<linearGradient id="paint0_linear_5611_119255" x1="24.9487" y1="11.674" x2="7.59372" y2="28.6181" gradientUnits="userSpaceOnUse">
<stop stop-color="#00A0FF"/>
<stop offset="0.00657445" stop-color="#00A1FF"/>
<stop offset="0.2601" stop-color="#00BEFF"/>
<stop offset="0.5122" stop-color="#00D2FF"/>
<stop offset="0.7604" stop-color="#00DFFF"/>
<stop offset="1" stop-color="#00E3FF"/>
</linearGradient>
<linearGradient id="paint1_linear_5611_119255" x1="37.1016" y1="23.3545" x2="12.6645" y2="23.3545" gradientUnits="userSpaceOnUse">
<stop stop-color="#FFE000"/>
<stop offset="0.4087" stop-color="#FFBD00"/>
<stop offset="0.7754" stop-color="#FFA500"/>
<stop offset="1" stop-color="#FF9C00"/>
</linearGradient>
<linearGradient id="paint2_linear_5611_119255" x1="28.0044" y1="25.7286" x2="4.46958" y2="48.7062" gradientUnits="userSpaceOnUse">
<stop stop-color="#FF3A44"/>
<stop offset="1" stop-color="#C31162"/>
</linearGradient>
<linearGradient id="paint3_linear_5611_119255" x1="10.3011" y1="2.84713" x2="20.8104" y2="13.1075" gradientUnits="userSpaceOnUse">
<stop stop-color="#32A071"/>
<stop offset="0.0685" stop-color="#2DA771"/>
<stop offset="0.4762" stop-color="#15CF74"/>
<stop offset="0.8009" stop-color="#06E775"/>
<stop offset="1" stop-color="#00F076"/>
</linearGradient>
<clipPath id="clip0_5611_119255">
<rect width="117" height="29.25" fill="white" transform="translate(13 8.66699)"/>
</clipPath>
</defs>
</svg>
