<svg width="21" height="20" viewBox="0 0 21 20" fill="none" xmlns="http://www.w3.org/2000/svg">
<path fill-rule="evenodd" clip-rule="evenodd" d="M1.43335 1.74999C1.43335 1.24373 1.84377 0.833313 2.35003 0.833313H4.81336C5.24741 0.833313 5.62198 1.13774 5.71069 1.56264L6.32396 4.50004H17.9336C18.9462 4.50004 19.767 5.32086 19.767 6.3334V10.298C19.767 11.166 19.1585 11.9149 18.3089 12.0926L8.34759 14.1761C7.35643 14.3833 6.3849 13.7479 6.17769 12.7567L4.0683 2.66668H2.35003C1.84377 2.66668 1.43335 2.25626 1.43335 1.74999ZM7.78223 11.4846C7.88572 11.9803 8.37152 12.2982 8.86718 12.1946L17.2046 10.4513C17.6293 10.3625 17.9336 9.98794 17.9336 9.55398V7.25008C17.9336 6.74382 17.5232 6.3334 17.0169 6.3334H6.70674L7.78223 11.4846Z" fill="#333333"/>
<path d="M7.26679 19.1666C8.18728 19.1666 8.93348 18.4204 8.93348 17.4999C8.93348 16.5795 8.18728 15.8333 7.26679 15.8333C6.3463 15.8333 5.6001 16.5795 5.6001 17.4999C5.6001 18.4204 6.3463 19.1666 7.26679 19.1666Z" fill="#333333"/>
<path d="M15.6 19.1666C16.5205 19.1666 17.2667 18.4204 17.2667 17.4999C17.2667 16.5795 16.5205 15.8333 15.6 15.8333C14.6796 15.8333 13.9333 16.5795 13.9333 17.4999C13.9333 18.4204 14.6796 19.1666 15.6 19.1666Z" fill="#333333"/>
</svg>
