<svg width="39" height="40" viewBox="0 0 39 40" fill="none" xmlns="http://www.w3.org/2000/svg">
<path d="M34.8108 11.3984V11.3672C34.7958 11.0078 34.7883 10.625 34.7808 10.1953C34.7509 8.125 33.1711 6.40625 31.1871 6.28906C27.0393 6.04687 23.8349 4.64062 21.0946 1.85156L21.0722 1.82812C20.1812 0.976562 18.8336 0.976562 17.9351 1.82812L17.9127 1.85156C15.1724 4.64844 11.968 6.05469 7.82021 6.29687C5.83617 6.41406 4.25641 8.125 4.22646 10.2031C4.21898 10.625 4.21149 11.0078 4.19652 11.375V11.4453C4.11416 15.8516 4.01683 21.3437 5.77627 26.3203C6.74209 29.0625 8.20954 31.4375 10.1337 33.3984C12.3199 35.625 15.1874 37.3984 18.6539 38.6562C18.7662 38.6953 18.886 38.7344 19.0058 38.7578C19.1705 38.7891 19.3427 38.8125 19.5149 38.8125C19.6871 38.8125 19.8518 38.7969 20.024 38.7578C20.1438 38.7344 20.2636 38.7031 20.3759 38.6562C23.8349 37.3906 26.7024 35.625 28.8886 33.3906C30.8127 31.4297 32.2727 29.0547 33.246 26.3125C34.9905 21.3125 34.8931 15.8203 34.8108 11.3984ZM31.2844 25.5703C29.4201 30.8437 25.6168 34.4609 19.6571 36.6328C19.6347 36.6406 19.6122 36.6484 19.5897 36.6484C19.5298 36.6641 19.4625 36.6641 19.4026 36.6484C19.3801 36.6406 19.3576 36.6406 19.3352 36.6328C13.3681 34.4609 9.56468 30.8437 7.70042 25.5781C6.07575 20.9687 6.16559 15.9141 6.24795 11.4531V11.4297C6.26292 11.0469 6.2779 10.6484 6.2779 10.2031C6.29287 9.28125 6.99665 8.51562 7.8876 8.46094C10.2385 8.32031 12.3124 7.85156 14.2066 7.00781C16.1008 6.17187 17.7929 4.98437 19.3576 3.39844C19.44 3.32812 19.5373 3.32812 19.6197 3.39844C21.192 4.99219 22.8765 6.17187 24.7707 7.00781C26.6724 7.84375 28.7388 8.32031 31.0897 8.46094C31.9807 8.51562 32.6845 9.27344 32.6994 10.2031C32.7069 10.6484 32.7144 11.0469 32.7369 11.4297C32.8267 15.8906 32.9166 20.9531 31.2844 25.5703Z" fill="#FBC100"/>
<path d="M19.4997 10.1016C14.2588 10.1016 10.0137 14.5312 10.0137 20C10.0137 25.4687 14.2588 29.8984 19.4997 29.8984C24.7405 29.8984 28.9857 25.4687 28.9857 20C28.9857 14.5312 24.7405 10.1016 19.4997 10.1016ZM19.4997 27.7422C15.4043 27.7422 12.0876 24.2734 12.0876 20C12.0876 15.7266 15.4043 12.2578 19.4997 12.2578C23.595 12.2578 26.9118 15.7187 26.9118 20C26.9118 24.2734 23.595 27.7422 19.4997 27.7422Z" fill="#FBC100"/>
<path d="M17.8828 23.5781C17.4785 23.1562 17.4785 22.4766 17.8828 22.0625L22.8916 16.8359C23.2959 16.4141 23.9473 16.4141 24.3441 16.8359C24.7484 17.2578 24.7484 17.9375 24.3441 18.3516L19.3353 23.5781C18.9385 24 18.2871 24 17.8828 23.5781Z" fill="#FBC100"/>
<path d="M15.7263 20.0312C16.0707 19.6719 16.6248 19.6719 16.9692 20.0312L19.0955 22.25C19.4399 22.6094 19.4399 23.1875 19.0955 23.5469C18.7511 23.9062 18.197 23.9062 17.8526 23.5469L15.7263 21.3281C15.3819 20.9687 15.3819 20.3906 15.7263 20.0312Z" fill="#FBC100"/>
</svg>
